<svg xmlns="http://www.w3.org/2000/svg" viewBox="0 0 298.07 301.64"><defs><style>.cls-1{fill:none;}.cls-1,.cls-2,.cls-3{stroke:#231f20;stroke-miterlimit:10;}.cls-1,.cls-2{stroke-width:7px;}.cls-2{fill:#be202e;}.cls-3{fill:#fff;stroke-width:4px;}</style></defs><title>Asset 7</title><g id="Layer_2" data-name="Layer 2"><g id="Layer_6" data-name="Layer 6"><ellipse class="cls-1" cx="149.04" cy="150.82" rx="145.54" ry="147.32"/><path class="cls-2" d="M108.08,81.85V224.23h80.5V76.86s-1.78-34.34-40.25-33.1-39.66,30.6-39.66,30.6Z"/><rect class="cls-3" x="154.08" y="85.06" width="16.5" height="17.07"/><rect class="cls-3" x="126.08" y="85.06" width="16.5" height="17.17"/><rect class="cls-3" x="153.92" y="113.56" width="16.5" height="17.17"/><rect class="cls-3" x="125.92" y="113.56" width="16.5" height="17.17"/><rect class="cls-3" x="154.08" y="140.23" width="16.5" height="17.17"/><rect class="cls-3" x="126.08" y="140.23" width="16.5" height="17.17"/><rect class="cls-3" x="153.92" y="166.06" width="16.5" height="17.17"/><rect class="cls-3" x="125.92" y="166.06" width="16.5" height="17.17"/><rect class="cls-3" x="153.92" y="190.89" width="16.5" height="17.17"/><rect class="cls-3" x="125.92" y="190.89" width="16.5" height="17.17"/><rect class="cls-3" x="110.08" y="69.89" width="76.67" height="7"/></g></g></svg>