<svg xmlns="http://www.w3.org/2000/svg" viewBox="0 0 298.07 301.64"><defs><style>.cls-1,.cls-2,.cls-4,.cls-5,.cls-6,.cls-7{fill:none;}.cls-1,.cls-2,.cls-3,.cls-4,.cls-5,.cls-6,.cls-7{stroke:#231f20;stroke-miterlimit:10;}.cls-1{stroke-width:7px;}.cls-2,.cls-3{stroke-width:9.16px;}.cls-3{fill:#be202e;}.cls-4{stroke-width:3.93px;}.cls-5{stroke-width:2.62px;}.cls-6{stroke-width:2.12px;}.cls-7{stroke-width:2.53px;}</style></defs><title>Asset 1</title><g id="Layer_2" data-name="Layer 2"><g id="Layer_7" data-name="Layer 7"><ellipse class="cls-1" cx="149.04" cy="150.82" rx="145.54" ry="147.32"/><polygon class="cls-2" points="111.29 121.07 192.35 121.71 172.05 249.49 135.69 249.74 111.29 121.07"/><path class="cls-3" d="M110.49,103.74S104,114.37,103,122.55l101.5-.82s-2.79-18-11.17-21.27l-81.48.41Z"/><polygon class="cls-3" points="115.84 99.85 120.29 82.26 184.32 81.86 189.87 100.88 115.84 99.85"/><path class="cls-3" d="M163.57,80.22s-.7-19.22,6.75-20.86l5.82-2.45,1.16,23.93Z"/><line class="cls-4" x1="137.03" y1="136.46" x2="148.67" y2="226.04"/><line class="cls-5" x1="138.43" y1="144.23" x2="159.84" y2="143.82"/><line class="cls-5" x1="139.36" y1="152.41" x2="156.12" y2="152"/><line class="cls-5" x1="139.82" y1="159.37" x2="163.1" y2="159.37"/><line class="cls-5" x1="140.75" y1="172.46" x2="164.03" y2="172.46"/><line class="cls-5" x1="142.15" y1="165.5" x2="158.91" y2="165.09"/><line class="cls-5" x1="142.62" y1="178.59" x2="159.38" y2="178.18"/><line class="cls-5" x1="144.01" y1="197" x2="167.29" y2="197"/><line class="cls-5" x1="142.15" y1="184.73" x2="165.43" y2="184.73"/><line class="cls-5" x1="145.41" y1="191.27" x2="162.17" y2="190.86"/><line class="cls-5" x1="145.41" y1="203.13" x2="162.17" y2="202.72"/><line class="cls-5" x1="145.88" y1="209.27" x2="169.15" y2="209.27"/><line class="cls-6" x1="147.74" y1="215.64" x2="164.5" y2="215.37"/><line class="cls-7" x1="146.52" y1="225.17" x2="168.28" y2="225.17"/></g></g></svg>