<svg xmlns="http://www.w3.org/2000/svg" viewBox="0 0 299.4 301.64"><defs><style>.cls-1{fill:#cecdcd;}.cls-1,.cls-2,.cls-3,.cls-4,.cls-6,.cls-7{stroke:#231f20;stroke-miterlimit:10;}.cls-1,.cls-2,.cls-3,.cls-4{stroke-width:7px;}.cls-2{fill:#be202e;}.cls-3{fill:#fff;}.cls-4,.cls-6,.cls-7{fill:none;}.cls-5{fill:#a5a4a4;}.cls-6{stroke-width:6.11px;}.cls-7{stroke-width:7.14px;}</style></defs><title>Asset 4</title><g id="Layer_2" data-name="Layer 2"><g id="Layer_1-2" data-name="Layer 1"><ellipse class="cls-1" cx="149.04" cy="150.82" rx="145.54" ry="147.32"/><circle class="cls-2" cx="150.85" cy="148.6" r="40.51"/><circle class="cls-3" cx="151.52" cy="148.88" r="27.68"/><path class="cls-4" d="M149.93,96.36s42.86-1.79,51.79,39.29"/><path class="cls-4" d="M142.79,57.09s78.33-3.57,94.64,78.55"/><path class="cls-4" d="M151.43,22.89S249.2,17.52,269.57,141"/><path class="cls-5" d="M6.93,140.55l103.41,8s1.25,44,49.25,40l12.67,104s-64,21.33-129.33-41.33C42.93,251.21-3.74,198.55,6.93,140.55Z"/><path class="cls-6" d="M146.86,201.61s-37.28,1.56-45-34.42"/><path class="cls-5" d="M290.09,153.55l-98.3-7.68S190.6,103.94,145,107.76l-12-99.21S193.76-11.8,255.87,48C255.87,48,300.23,98.22,290.09,153.55Z"/><path class="cls-6" d="M153.07,236s-68.13,3.13-82.33-68.81"/><path class="cls-6" d="M145.55,266s-85,4.7-102.77-103.47"/><ellipse class="cls-4" cx="150.37" cy="150.82" rx="145.54" ry="147.32"/><circle class="cls-4" cx="150.85" cy="148.6" r="40.51"/><path class="cls-7" d="M156.29,94.12s44.17-1.8,53.37,39.68"/><path class="cls-7" d="M148.93,54.46s80.72-3.61,97.54,79.34"/><path class="cls-7" d="M157.84,19.92S258.6,14.49,279.6,139.21"/></g></g></svg>